<?xml version="1.0" encoding="UTF-8"?>
<svg xmlns="http://www.w3.org/2000/svg" id="Layer_1" data-name="Layer 1" width="401" height="293" viewBox="0 0 401 293">
  <path d="M328.22,237.64c58.63-52.98,48.92-139.38-29.73-165.59-30.67-10.19-61.81-1.92-91.07-15.31-20.26-9.3-34.52-22.55-52.46-34.5-9.23-6.16-19.51-10.65-30.39-12.85C57.13-4.25,27.35,76.38,29.3,123.66c5.01,123.79,211.8,192.7,298.82,114h.1Z" style="fill: #eef1f6; stroke-width: 0px;"></path>
  <rect x="143.94" y="31.23" width="100.01" height="162.28" style="fill: #fff; stroke-width: 0px;"></rect>
  <rect x="160.87" y="14.55" width="100.01" height="162.28" style="fill: #fff; stroke-width: 0px;"></rect>
  <path d="M315.27,30.05c0,7.24-5.77,13.13-12.94,13.33v.56c-.24,0-.5-.03-.75-.05v-.5c-2.89-.08-5.57-1.1-7.72-2.74-.71-.73-1.26-1.57-1.6-2.57-.06.1-.12.21-.17.31-.09-.1-.19-.22-.28-.35-.16-.22-.29-.44-.39-.63-.27-.35-.56-.8-.82-1.36-.38-.82-.54-1.58-.61-2.13-.03-.05-.04-.12-.05-.18-.39-1.14-.56-2.38-.56-3.62,0-.22,0-.43.01-.65.01-.23.03-.46.05-.71.04-.42.11-.84.19-1.25.04-.2.08-.39.14-.61.65-2.78,2.12-5.43,4.05-7.24.52-.48,1.09-.91,1.7-1.26.23-.14.45-.24.68-.35.19-.09.38-.19.58-.27.38-.18.76-.31,1.15-.42.23-.08.48-.15.71-.2.29-.08.58-.14.88-.19,3.52-.58,7.39.3,9.98,2.58,1.18,1.05,2.24,2.34,3.08,3.77.42.71.77,1.45,1.07,2.21.03.01.04.04.07.05.53.48.96,1.03,1.26,1.67.19.9.3,1.83.3,2.8Z" style="fill: #fff; stroke-width: 0px;"></path>
  <path d="M124.43,60.77c0,7.6-6.05,13.78-13.58,14v.31c-.27-.01-.53-.03-.79-.04v-.27c-1.37-.04-2.7-.29-3.96-.71-.04-.01-.07-.03-.1-.04-2.24-.96-4.17-2.51-5.58-4.45-.05-.12-.11-.24-.15-.37-.01.03-.03.05-.04.08-1.48-2.13-2.34-4.72-2.34-7.52,0-7.33,5.97-13.3,13.32-13.3,3.83,0,7.28,1.62,9.69,4.21.24.34.48.69.68,1.05.45.75.81,1.52,1.13,2.32.03.01.04.04.07.05.34.3.64.62.88.99.35.94.61,1.93.75,2.95v.05c.01.23.01.46.01.69Z" style="fill: #fff; stroke-width: 0px;"></path>
  <path d="M314.97,27.19c-1.29-6.01-6.64-10.52-13.02-10.52-.84,0-1.66.08-2.44.23-.3.05-.6.11-.88.19-.23.05-.48.12-.71.2-.39.12-.77.27-1.15.42-.2.08-.39.18-.58.27-.23.11-.45.22-.68.35-4.1,2.27-6.88,6.64-6.88,11.65,0,4.32,2.05,8.15,5.24,10.59,2.16,1.64,4.83,2.66,7.72,2.74v23.83h-40.65V14.93c0-.22-.18-.38-.38-.38h-99.63c-.22,0-.38.18-.38.38v6.24h0v155.28c0,.22.18.38.38.38h99.63c.2,0,.38-.16.38-.38v-108.57h41.01c.2,0,.37-.18.37-.38v-23.64s.01-.56.01-.56c7.17-.2,12.94-6.1,12.94-13.33,0-.96-.11-1.9-.3-2.8ZM260.19,176.09h-98.9V21.54h98.9v154.55ZM301.95,42.59c-3.9,0-7.39-1.79-9.69-4.59h-.01c-1-1.22-1.78-2.62-2.27-4.15-.03-.05-.04-.12-.05-.18-.37-1.14-.54-2.36-.56-3.62,0-.22,0-.43.01-.65.01-.23.03-.46.05-.71.04-.42.11-.84.19-1.25.04-.2.08-.39.14-.61,1.4-5.42,6.34-9.42,12.19-9.42,4.47,0,8.39,2.34,10.62,5.84.45.71.83,1.47,1.14,2.27.53,1.38.81,2.89.81,4.47,0,6.95-5.63,12.61-12.57,12.61Z" style="fill: #000; stroke-width: 0px;"></path>
  <path d="M247.42,32.05h-73.36c-1.69,0-3.07,1.38-3.07,3.07v51.32c0,1.7,1.38,3.07,3.07,3.07h73.36c1.69,0,3.07-1.38,3.07-3.07v-51.32c0-1.7-1.38-3.07-3.07-3.07ZM249.75,86.44c0,1.28-1.04,2.33-2.33,2.33h-73.36c-1.28,0-2.33-1.04-2.33-2.33v-51.32c0-1.28,1.04-2.33,2.33-2.33h73.36c1.28,0,2.33,1.04,2.33,2.33v51.32Z" style="fill: #000; stroke-width: 0px;"></path>
  <path d="M210.73,40.56c-11.15,0-20.22,9.08-20.22,20.24s9.07,20.22,20.22,20.22,20.24-9.07,20.24-20.22-9.08-20.24-20.24-20.24ZM210.73,80.27c-10.74,0-19.47-8.74-19.47-19.47s8.74-19.49,19.47-19.49,19.49,8.74,19.49,19.49-8.74,19.47-19.49,19.47Z" style="fill: #000; stroke-width: 0px;"></path>
  <path d="M250.12,101.02h-78.76c-.21,0-.37.17-.37.37s.17.37.37.37h78.76c.21,0,.37-.17.37-.37s-.17-.37-.37-.37Z" style="fill: #000; stroke-width: 0px;"></path>
  <path d="M246.01,111.03h-31.97c-2.39,0-4.47,1.9-4.47,4.47s2.01,4.49,4.47,4.49h31.97c2.46,0,4.49-2.02,4.49-4.49s-2.01-4.47-4.49-4.47ZM246.01,119.24h-31.97c-2.05,0-3.73-1.68-3.73-3.74s1.74-3.73,3.73-3.73h31.97c2.06,0,3.74,1.67,3.74,3.73s-1.7,3.74-3.74,3.74Z" style="fill: #000; stroke-width: 0px;"></path>
  <path d="M250.12,127.86h-78.76c-.21,0-.37.17-.37.37s.17.37.37.37h78.76c.21,0,.37-.17.37-.37s-.17-.37-.37-.37Z" style="fill: #000; stroke-width: 0px;"></path>
  <path d="M250.12,154.69h-78.76c-.21,0-.37.17-.37.37s.17.37.37.37h78.76c.21,0,.37-.17.37-.37s-.17-.37-.37-.37Z" style="fill: #000; stroke-width: 0px;"></path>
  <path d="M247.57,139.42h-32.7c-1.57,0-2.91,1.25-2.91,2.91s1.31,2.92,2.91,2.92h32.7c1.6,0,2.92-1.32,2.92-2.92s-1.31-2.91-2.92-2.91ZM247.57,144.51h-32.7c-1.19,0-2.17-.98-2.17-2.18s1.02-2.17,2.17-2.17h32.7c1.2,0,2.18.97,2.18,2.17s-.98,2.18-2.18,2.18Z" style="fill: #000; stroke-width: 0px;"></path>
  <path d="M198.45,123.77c.21,0,.37-.17.37-.37v-17.16c0-.21-.17-.37-.37-.37h-26.1c-.21,0-.37.17-.37.37v17.16c0,.21.17.37.37.37h26.1ZM172.72,106.6h25.35v16.42h-25.35v-16.42Z" style="fill: #000; stroke-width: 0px;"></path>
  <path d="M198.45,150.6c.21,0,.37-.17.37-.37v-17.16c0-.21-.17-.37-.37-.37h-26.1c-.21,0-.37.17-.37.37v17.16c0,.21.17.37.37.37h26.1ZM172.72,133.44h25.35v16.42h-25.35v-16.42Z" style="fill: #000; stroke-width: 0px;"></path>
  <path d="M190.64,113.1c-.15-.23-.48-.23-.63,0l-2.6,4.1-4.62-7.29c-.15-.23-.48-.23-.63,0l-6.44,10.17c-.16.25.02.57.31.57.62,0,19.09,0,18.71,0,.29,0,.47-.32.32-.57l-4.42-6.98Z" style="fill: #000; stroke-width: 0px;"></path>
  <path d="M188.3,111.62c.73,0,1.32-.6,1.32-1.34s-.59-1.32-1.32-1.32-1.34.59-1.34,1.32.59,1.34,1.34,1.34Z" style="fill: #000; stroke-width: 0px;"></path>
  <path d="M192.44,135.25l-7.05,1.69-7.05-1.69c-.24-.06-.46.13-.46.36v9.2c0,.17.12.32.29.36l7.13,1.71c.06.01.11.01.17,0l7.13-1.71c.17-.04.29-.19.29-.36v-9.2c0-.24-.23-.42-.46-.36ZM178.64,136.09l6.39,1.53v8.43l-6.39-1.53v-8.43ZM192.16,144.52l-6.39,1.53v-8.43l6.39-1.53v8.43Z" style="fill: #000; stroke-width: 0px;"></path>
  <path d="M309.24,28.15c.8-.59.97-1.73.39-2.54-.59-.79-1.73-.97-2.54-.39l-7.82,5.73-2.06-2.62c-.6-.81-1.74-.95-2.54-.33-.77.59-.94,1.72-.31,2.54l3.12,4.01c.55.71,1.64.97,2.52.37l9.24-6.77s0,0,0,0Z" style="fill: #000; stroke-width: 0px;"></path>
  <path d="M199.66,165.1c-1.34,0-2.43,1.09-2.43,2.43s1.09,2.43,2.43,2.43,2.42-1.09,2.42-2.43-1.09-2.43-2.42-2.43ZM199.66,169.21c-.93,0-1.68-.76-1.68-1.68s.76-1.68,1.68-1.68,1.67.76,1.67,1.68-.75,1.68-1.67,1.68Z" style="fill: #000; stroke-width: 0px;"></path>
  <path d="M210.75,165.1c-1.34,0-2.43,1.09-2.43,2.43s1.09,2.43,2.43,2.43,2.42-1.09,2.42-2.43-1.09-2.43-2.42-2.43ZM210.75,169.21c-.93,0-1.68-.76-1.68-1.68s.76-1.68,1.68-1.68,1.67.76,1.67,1.68-.75,1.68-1.67,1.68Z" style="fill: #000; stroke-width: 0px;"></path>
  <path d="M221.84,165.1c-1.34,0-2.43,1.09-2.43,2.43s1.09,2.43,2.43,2.43,2.42-1.09,2.42-2.43-1.09-2.43-2.42-2.43ZM221.84,169.21c-.93,0-1.68-.76-1.68-1.68s.76-1.68,1.68-1.68,1.67.76,1.67,1.68-.75,1.68-1.67,1.68Z" style="fill: #000; stroke-width: 0px;"></path>
  <path d="M243.58,181.26c-.2,0-.38.16-.38.37v11.13h-98.89V31.98h10.2c.2,0,.37-.18.37-.38s-.16-.37-.37-.37h-10.56c-.22,0-.38.16-.38.37v56.61h-31.65v-13.16c7.02-.37,12.61-6.18,12.61-13.29,0-.57-.04-1.13-.11-1.68v-.05c-.14-1.02-.39-2.01-.75-2.95-.61-1.64-1.56-3.15-2.76-4.41-2.42-2.59-5.86-4.21-9.69-4.21-7.34,0-13.32,5.97-13.32,13.3,0,2.8.86,5.39,2.34,7.52.05.1.12.19.19.29,1.41,1.94,3.34,3.49,5.58,4.45.03.01.05.03.1.04,1.24.52,2.57.86,3.96.98.26.01.52.03.79.04h.31v13.51c0,.2.18.37.38.37h32.01v104.18c0,.2.16.37.38.37h99.63c.2,0,.37-.16.37-.37v-11.51c0-.2-.16-.37-.37-.37ZM98.65,61.76c0-6.92,5.65-12.56,12.57-12.56s12.56,5.63,12.56,12.56-5.62,12.58-12.56,12.58-12.57-5.65-12.57-12.58Z" style="fill: #000; stroke-width: 0px;"></path>
  <path d="M109.16,66.05v1.44c0,1.14.92,2.06,2.06,2.06s2.06-.92,2.06-2.06v-1.44c1.53-.78,2.51-2.36,2.51-4.09,0-2.53-2.05-4.59-4.57-4.59s-4.57,2.06-4.57,4.59c0,1.72.98,3.3,2.51,4.09ZM111.22,58.11c2.11,0,3.83,1.72,3.83,3.84,0,1.52-.9,2.9-2.29,3.52-.14.06-.22.19-.22.34v1.67c0,.72-.59,1.31-1.31,1.31s-1.31-.59-1.31-1.31v-1.67c0-.15-.09-.28-.22-.34-1.39-.63-2.29-2.01-2.29-3.52,0-2.12,1.72-3.84,3.83-3.84Z" style="fill: #000; stroke-width: 0px;"></path>
  <path d="M111.22,56.18c.21,0,.37-.17.37-.37v-1.43c0-.21-.17-.37-.37-.37s-.37.17-.37.37v1.43c0,.21.17.37.37.37Z" style="fill: #000; stroke-width: 0px;"></path>
  <path d="M115.3,57.48l.78-.9c.13-.16.12-.39-.04-.53-.15-.13-.39-.12-.53.04l-.78.9c-.13.16-.12.39.04.53.15.13.39.12.53-.04Z" style="fill: #000; stroke-width: 0px;"></path>
  <path d="M107.14,57.47c.14.16.37.17.53.04.16-.13.17-.37.04-.53l-.77-.9c-.14-.16-.37-.17-.53-.04-.16.13-.17.37-.04.53l.77.9Z" style="fill: #000; stroke-width: 0px;"></path>
  <path d="M129.41,157v-38.34c0-.21-.17-.37-.37-.37s-.37.17-.37.37v38.34c0,.21.17.37.37.37s.37-.17.37-.37Z" style="fill: #000; stroke-width: 0px;"></path>
  <circle cx="210.88" cy="54.49" r="4.5" style="fill: #000; stroke-width: 0px;"></circle>
  <path d="M218.68,63.64c0,4.38-3.55,7.94-7.94,7.94s-7.94-3.55-7.94-7.94,15.87-4.38,15.87,0Z" style="fill: #000; stroke-width: 0px;"></path>
  <g>
    <g>
      <g>
        <circle cx="322.38" cy="203.72" r="38.13" transform="translate(-49.63 287.63) rotate(-45)" style="fill: #fff; stroke-width: 0px;"></circle>
        <path d="M322.38,242.13c-21.18,0-38.42-17.23-38.42-38.42s17.23-38.42,38.42-38.42,38.42,17.23,38.42,38.42-17.23,38.42-38.42,38.42ZM322.38,165.87c-20.87,0-37.85,16.98-37.85,37.85s16.98,37.85,37.85,37.85,37.85-16.98,37.85-37.85-16.98-37.85-37.85-37.85Z" style="fill: #000; stroke-width: 0px;"></path>
      </g>
      <path d="M320.44,228.02c-.15,0-.27-.11-.28-.26-.01-.15.11-.29.26-.3,17.43-1.26,21.64-10.16,21.68-10.25.06-.14.23-.21.37-.14.14.06.2.23.14.37-.04.1-1.09,2.38-4.36,4.83-2.99,2.25-8.51,5.08-17.79,5.75,0,0-.01,0-.02,0Z" style="fill: #000; stroke-width: 0px;"></path>
      <g>
        <path d="M368.25,280.44c-.11,0-.21-.06-.26-.16l-21.43-47.16c-.06-.14,0-.31.14-.37.14-.07.31,0,.37.14l21.43,47.16c.06.14,0,.31-.14.37-.04.02-.08.03-.12.03Z" style="fill: #000; stroke-width: 0px;"></path>
        <path d="M366.81,283.71c0,1.51,1.23,2.74,2.74,2.74s2.74-1.23,2.74-2.74-1.23-2.74-2.74-2.74-2.74,1.23-2.74,2.74Z" style="fill: #000; stroke-width: 0px;"></path>
        <path d="M272.59,283.71c0,1.51,1.23,2.74,2.74,2.74s2.74-1.23,2.74-2.74-1.23-2.74-2.74-2.74-2.74,1.23-2.74,2.74Z" style="fill: #000; stroke-width: 0px;"></path>
        <path d="M276.52,280.44s-.08,0-.12-.03c-.14-.06-.2-.23-.14-.37l21.43-47.16c.06-.14.23-.2.37-.14.14.06.2.23.14.37l-21.43,47.16c-.05.1-.15.16-.26.16Z" style="fill: #000; stroke-width: 0px;"></path>
      </g>
    </g>
    <g>
      <g>
        <g>
          <g>
            <path d="M273.16,215.15c3.8,4.55,7.6,9.11,11.4,13.66,2.11,2.64,2.41,6.31.74,9.24-4.61,8.1-14.39,21.05-19.4,27.54-1.24,1.61-3.79,1.05-4.26-.92l-2.64-11.24c-1.26-2.13-2.52-4.25-3.78-6.38,5.98-10.64,11.96-21.27,17.95-31.91Z" style="fill: #fff; stroke-width: 0px;"></path>
            <path d="M263.99,266.82c-.19,0-.39-.02-.58-.06-1.03-.22-1.81-1-2.05-2.02l-2.63-11.2-3.76-6.34c-.05-.09-.05-.19,0-.28l17.95-31.91c.05-.08.13-.13.22-.14.09,0,.18.03.24.1l11.4,13.66c2.2,2.76,2.5,6.51.76,9.56-4.57,8.03-14.13,20.72-19.43,27.58-.52.67-1.3,1.05-2.12,1.05ZM255.54,247.05l3.7,6.24s.03.05.03.08l2.64,11.24c.19.81.81,1.42,1.62,1.6.81.17,1.63-.12,2.14-.78,5.28-6.84,14.83-19.52,19.38-27.51,1.62-2.85,1.34-6.35-.71-8.93l-11.13-13.35-17.67,31.41Z" style="fill: #000; stroke-width: 0px;"></path>
          </g>
          <path d="M261.4,253.01c-.07,0-.13-.02-.19-.07-.12-.1-.13-.28-.02-.4,7.47-8.35,13.37-17.86,17.53-28.26.06-.14.22-.21.37-.16.14.06.21.22.16.37-4.18,10.46-10.12,20.03-17.63,28.43-.06.06-.13.09-.21.09Z" style="fill: #000; stroke-width: 0px;"></path>
        </g>
        <g>
          <path d="M213.87,262.35h35.83l-4.53,11.69c-2.54,4.51-7.06,7.55-12.19,8.23l-31.78,4.17c-2.08.27-3.42-2.13-2.09-3.75,3.91-4.8,10.17-12.01,14.76-20.33Z" style="fill: #fff; stroke-width: 0px;"></path>
          <path d="M200.88,286.74c-.94,0-1.78-.49-2.25-1.33-.53-.95-.43-2.06.26-2.9.49-.6,1.02-1.24,1.58-1.92,3.86-4.69,9.16-11.11,13.16-18.37.05-.09.14-.15.25-.15h35.83c.09,0,.18.05.23.12.05.08.06.17.03.26l-4.53,11.69s-.01.03-.02.04c-2.57,4.56-7.21,7.69-12.4,8.37l-31.78,4.17c-.12.02-.24.02-.36.02ZM214.04,262.63c-4.02,7.24-9.29,13.63-13.14,18.31-.56.68-1.08,1.32-1.57,1.92-.64.79-.52,1.69-.2,2.27.32.58,1.03,1.16,2.04,1.02l31.78-4.17c5.01-.66,9.49-3.67,11.97-8.07l4.38-11.29h-35.26Z" style="fill: #000; stroke-width: 0px;"></path>
        </g>
        <path d="M247.23,173.08l37.37,5.18,27.67-.13c4.7,16.77-49.68,23.12-49.68,23.12,5.39,6.14,10.77,12.29,16.16,18.43-3.6,1.71-8.83,4.74-13.92,9.91-6.17,6.28-9.29,12.84-10.83,16.85-8.58-14.96-17.16-29.92-25.74-44.88-8.11-13.68,3.2-30.67,18.96-28.49Z" style="fill: #000; stroke-width: 0px;"></path>
        <path d="M208.05,266.54c9.34-16.21,21.08-37.92,28.36-54.36,6.21-14.01,20.24-22.89,35.56-22.51l29.21.74-.45-15.08,2.45-.45,38.42,7.07c8.84,35.17-21.18,37.16-21.18,37.16-.85.05-46.03,3.18-46.03,3.18-7.94,14.86-15.89,29.71-23.83,44.57-13.66-.03-28.85-.28-42.5-.31Z" style="fill: #000; stroke-width: 0px;"></path>
        <path d="M235.66,214.14s-.08,0-.12-.03c-.14-.06-.2-.23-.14-.37.25-.56.5-1.12.75-1.67,4.87-10.98,14.76-19.11,26.47-21.75.15-.03.3.06.34.21.03.15-.06.3-.21.34-11.54,2.6-21.29,10.61-26.08,21.43-.25.55-.5,1.11-.75,1.68-.05.1-.15.17-.26.17Z" style="fill: #fff; stroke-width: 0px;"></path>
        <path d="M209.78,275.54c-1.89,0-2.89-.08-2.93-.09-.15-.01-.27-.15-.25-.31.01-.15.15-.27.31-.25.15.01,15.34,1.28,40.03-6.33.15-.05.31.04.35.19.05.15-.04.31-.19.35-18.53,5.71-31.74,6.44-37.31,6.44Z" style="fill: #000; stroke-width: 0px;"></path>
      </g>
      <g>
        <g>
          <g>
            <path d="M283.68,140.69l-7.13-6.62-13.83-1.15s-8.44-16.24-10.64-20.83c-2.19-4.59-4.48-9.93-8.52-7.92,0,0-3.84-1.53-5.19,1.98,0,0-2.22-.43-4.44,2.59-2.23,3.02-1.94,4.76-.81,5.86,1.13,1.1,4.53-2.21,4.53-2.21l1.73,1.91c.44.48.55,1.19.25,1.77-.41.81-1.19,1.75-2.58,1.59-1.87-.21-3.64-.86-4.65.17-.5.5-.41,1.34.18,1.73,1.41.94,4.46,2.86,7.44,3.95,0,0,1.46,5.88,3.24,12.37,2.72,9.88,11.07,17.18,21.22,18.56l8.53,1.16,10.68-14.91Z" style="fill: #fff; stroke-width: 0px;"></path>
            <path d="M273.01,155.89s-.03,0-.04,0l-8.53-1.16c-10.28-1.4-18.7-8.76-21.45-18.77-1.61-5.87-2.97-11.29-3.21-12.24-2.92-1.09-5.85-2.92-7.36-3.92-.35-.23-.58-.61-.62-1.03-.04-.42.1-.83.4-1.13.89-.9,2.24-.68,3.66-.44.4.07.81.14,1.22.18.98.11,1.75-.37,2.29-1.44.24-.47.15-1.05-.21-1.45l-1.53-1.7c-.91.85-3.56,3.13-4.71,2.01-1.49-1.45-1.24-3.49.78-6.23,1.91-2.59,3.82-2.75,4.49-2.73.41-.94,1.04-1.61,1.87-1.97,1.44-.63,3.04-.17,3.48-.01.98-.46,1.92-.53,2.81-.23,2.42.84,4.07,4.3,5.66,7.66l.32.67c2.06,4.31,9.74,19.09,10.56,20.68l13.68,1.14c.06,0,.12.03.17.07l7.13,6.62c.1.1.12.26.04.37l-10.68,14.91c-.05.07-.14.12-.23.12ZM234.02,117.55c-.57,0-1.06.12-1.42.48-.18.18-.26.42-.24.67.03.25.16.48.37.62,1.51,1.01,4.47,2.85,7.38,3.92.09.03.15.11.18.2.01.06,1.47,5.95,3.24,12.37,2.69,9.79,10.93,16.99,20.98,18.36l8.36,1.14,10.43-14.57-6.88-6.38-13.74-1.15c-.1,0-.18-.06-.23-.15-.08-.16-8.47-16.3-10.64-20.84l-.32-.67c-1.54-3.25-3.14-6.61-5.34-7.37-.79-.27-1.6-.19-2.49.25-.07.04-.16.04-.23,0-.02,0-1.73-.67-3.17-.04-.75.33-1.3.95-1.65,1.86-.05.13-.18.2-.32.18-.08-.01-2.08-.34-4.16,2.48-1.82,2.47-2.1,4.27-.84,5.49.71.69,3.09-1.19,4.14-2.21.05-.05.13-.09.21-.08.08,0,.15.04.2.09l1.73,1.91c.52.57.64,1.41.29,2.08-.64,1.26-1.65,1.89-2.86,1.75-.43-.05-.85-.12-1.25-.19-.64-.11-1.23-.21-1.75-.21Z" style="fill: #000; stroke-width: 0px;"></path>
          </g>
          <path d="M245.37,109.95c-.07,0-.13-.02-.19-.07-1.89-1.68-4.19-2.85-6.66-3.39-.15-.03-.25-.18-.21-.34.03-.15.18-.25.34-.21,2.56.56,4.95,1.78,6.91,3.52.12.1.13.28.02.4-.06.06-.13.09-.21.09Z" style="fill: #000; stroke-width: 0px;"></path>
          <path d="M248.93,110.06c-.09,0-.18-.05-.24-.13-1.35-2.1-3.05-3.91-5.06-5.39-.13-.09-.15-.27-.06-.39.09-.13.27-.15.39-.06,2.07,1.52,3.82,3.38,5.2,5.54.08.13.05.3-.09.39-.05.03-.1.04-.15.04Z" style="fill: #000; stroke-width: 0px;"></path>
        </g>
        <g>
          <path d="M276.55,134.07l-4.35,22.87,23.05,3.55c-.06,3.29-.29,6.89-.77,10.74-.75,5.95-1.95,11.22-3.27,15.72,15.45-.48,31.87-1.24,47.31-1.72l-3.59-13.02,23.08.53s-1.48-7.92-3.4-16.23c-2.32-10.02-10.68-17.53-20.89-18.71-3.59-.42-7.74-.75-12.39-.9-18.45-.61-44.78-2.81-44.78-2.81Z" style="fill: #fff; stroke-width: 0px;"></path>
          <path d="M291.22,187.23c-.09,0-.17-.04-.22-.11-.06-.07-.07-.16-.05-.25,1.5-5.12,2.59-10.39,3.26-15.68.43-3.46.69-6.97.76-10.46l-22.8-3.51c-.08-.01-.14-.05-.19-.12-.04-.06-.06-.14-.05-.21l4.35-22.87c.03-.14.16-.24.3-.23.26.02,26.54,2.21,44.77,2.81,4.25.14,8.42.44,12.41.9,10.29,1.19,18.79,8.79,21.13,18.92,1.9,8.22,3.39,16.16,3.41,16.24.02.08,0,.17-.06.23-.05.06-.15.1-.22.1l-22.7-.52,3.49,12.66c.02.08,0,.17-.04.24-.05.07-.13.11-.22.11-7.72.24-15.82.56-23.66.86-7.83.31-15.93.62-23.66.86,0,0,0,0,0,0ZM272.54,156.71l22.76,3.51c.14.02.24.14.24.28-.07,3.59-.33,7.21-.77,10.77-.65,5.18-1.72,10.36-3.17,15.39,7.61-.24,15.57-.55,23.27-.85,7.71-.3,15.68-.61,23.3-.85l-3.5-12.68c-.02-.09,0-.18.05-.25.05-.07.14-.11.22-.11h0l22.73.52c-.31-1.61-1.66-8.63-3.34-15.88-2.29-9.9-10.59-17.33-20.65-18.49-3.97-.46-8.13-.76-12.36-.9-17.29-.57-41.79-2.57-44.55-2.79l-4.24,22.33Z" style="fill: #000; stroke-width: 0px;"></path>
        </g>
        <path d="M334.92,172.59c-.12,0-.23-.08-.27-.2-.28-.97-.86-2.95-1.65-5.61-.93-3.13-1.39-4.58-2.63-6.29-.36-.5-.76-.98-1.19-1.43-.11-.11-.1-.29,0-.4.11-.11.29-.1.4,0,.45.46.86.96,1.24,1.49,1.34,1.86,1.86,3.59,2.71,6.46.79,2.66,1.37,4.64,1.65,5.61.04.15-.04.31-.19.35-.03,0-.05.01-.08.01Z" style="fill: #000; stroke-width: 0px;"></path>
        <g>
          <path d="M249.17,190.82h61.31v-1.85c0-1.62-1.32-2.94-2.94-2.94h-62.68l.5,1.87c.46,1.72,2.02,2.92,3.81,2.92Z" style="fill: #fff; stroke: #000; stroke-miterlimit: 10; stroke-width: .5px;"></path>
          <path d="M247.42,188.65h36.99c1.58,0,2.74-1.48,2.36-3.01l-6.99-28.19c-.27-1.08-1.24-1.85-2.36-1.85h-36.99c-1.58,0-2.74,1.48-2.36,3.01l6.99,28.19c.27,1.08,1.24,1.85,2.36,1.85Z" style="fill: #fff; stroke: #000; stroke-miterlimit: 10; stroke-width: .5px;"></path>
        </g>
        <g>
          <path d="M358.02,172.73l1.37,9.32c.69,4.7-3.01,8.9-7.76,8.8-19.35,0-38.7-.01-58.05-.02.08-1.94.5-5.12,2.47-8.23,2.96-4.67,7.41-7.35,11-7.54,12.26-.62,28.86.7,28.86.7l-.99-3.45,23.1.41Z" style="fill: #fff; stroke-width: 0px;"></path>
          <path d="M351.79,191.14c-.05,0-.11,0-.16,0h-8.39c-.16,0-.28-.13-.28-.28s.13-.28.28-.28h8.4c2.19.05,4.27-.87,5.71-2.5s2.09-3.81,1.77-5.97l-1.34-9.09-22.48-.4.88,3.09c.03.09,0,.18-.05.26-.06.07-.15.11-.24.1-.17-.01-16.72-1.32-28.82-.7-3.77.19-8.1,3.17-10.78,7.4-1.46,2.31-2.27,4.98-2.42,7.94,0,.16-.15.28-.29.27-.16,0-.28-.14-.27-.29.15-3.06.99-5.82,2.51-8.21,2.82-4.45,7.22-7.46,11.22-7.67,11.08-.56,25.87.47,28.49.67l-.88-3.06c-.02-.09,0-.18.05-.25.05-.07.14-.12.23-.11l23.1.41c.14,0,.25.1.27.24l1.37,9.32c.34,2.32-.35,4.67-1.91,6.43-1.52,1.72-3.69,2.7-5.98,2.7Z" style="fill: #000; stroke-width: 0px;"></path>
          <path d="M343.12,176.38s0,0-.01,0c-1.34-.05-2.69-.11-4.04-.16-.74-.03-1.29-.06-1.85-.1-.5-.03-1-.06-1.66-.09-.16,0-.28-.14-.27-.29,0-.16.15-.28.29-.27.66.03,1.17.06,1.67.09.55.03,1.1.06,1.84.1,1.35.06,2.69.11,4.04.16.16,0,.28.14.27.29,0,.15-.13.27-.28.27Z" style="fill: #000; stroke-width: 0px;"></path>
          <path d="M302.92,190.98c-.15,0-.27-.12-.28-.27-.11-2.05,1.02-4.11,2.8-5.13,1.27-.72,2.78-.91,4.09-1.02,2.43-.22,4.89-.28,7.33-.18.16,0,.28.14.27.29,0,.16-.14.28-.29.27-2.41-.09-4.85-.03-7.26.18-1.31.12-2.69.29-3.86.95-1.61.91-2.62,2.76-2.52,4.61,0,.15-.11.29-.27.3,0,0-.01,0-.02,0Z" style="fill: #000; stroke-width: 0px;"></path>
          <path d="M298.84,191.08c-.15,0-.28-.12-.28-.27-.06-2.41.78-4.88,2.3-6.75,1.52-1.88,3.76-3.2,6.13-3.64.15-.03.3.07.33.23.03.15-.07.3-.23.33-2.24.42-4.36,1.67-5.8,3.44-1.44,1.77-2.23,4.1-2.17,6.38,0,.16-.12.28-.27.29h0Z" style="fill: #000; stroke-width: 0px;"></path>
        </g>
        <g>
          <path d="M240.02,123.51c-2.98-1.09-6.03-3-7.44-3.95-.59-.39-.68-1.23-.18-1.73,1.02-1.03,2.78-.39,4.65-.17,1.38.16,2.17-.79,2.58-1.59l.39,7.44Z" style="fill: #fff; stroke-width: 0px;"></path>
          <path d="M240.02,123.79s-.06,0-.1-.02c-2.96-1.08-5.97-2.96-7.5-3.98-.35-.23-.58-.61-.62-1.03-.04-.42.1-.83.4-1.13.89-.9,2.24-.68,3.66-.44.4.07.81.14,1.22.18.98.11,1.75-.37,2.29-1.44.07-.14.24-.19.38-.12.14.07.19.24.12.38-.64,1.26-1.65,1.89-2.86,1.75-.43-.05-.85-.12-1.25-.19-1.33-.22-2.48-.42-3.17.28-.18.18-.26.42-.24.67.03.25.16.48.37.62,1.51,1.01,4.47,2.85,7.38,3.92.15.05.22.21.17.36-.04.11-.15.18-.26.18Z" style="fill: #000; stroke-width: 0px;"></path>
        </g>
      </g>
      <g>
        <path d="M316.05,126.61c2.02-5.23,3.65-9.43,1.91-12.54-1.35-2.43-3.1-.98-8.94-4.43-4.74-2.8-6.92-5.69-10.2-5.02-1.13.23-1.88.77-2.08.92-3.33,2.53-2.17,8.67-2.1,9.11.31,1.93,1.03,3.71,18.74,16.73,1.04-.55,1.58-1.96,2.67-4.77Z" style="fill: #000; stroke-width: 0px;"></path>
        <g>
          <path d="M312.07,124.99c2.32,4.46,4.64,8.92,6.97,13.37-.48,1.05-1.89,3.71-4.88,5.05-3.65,1.64-8.68.89-9.35-1.18-.13-.39-.37-1.66,2.07-4.03l-3.14-8.97,8.33-4.24Z" style="fill: #fff; stroke-width: 0px;"></path>
          <path d="M309.82,144.59c-1.38,0-2.65-.25-3.56-.65-.91-.4-1.5-.96-1.72-1.62-.25-.76-.09-2.1,2.01-4.19l-3.08-8.8c-.05-.13.01-.28.14-.34l8.33-4.24c.14-.07.31-.02.38.12l6.97,13.37c.04.08.04.17,0,.25-.64,1.38-2.14,3.9-5.02,5.19-1.44.65-3.01.92-4.46.92ZM304.09,129.37l3.06,8.74c.04.1,0,.22-.07.29-2.2,2.14-2.13,3.33-2,3.74.16.5.65.94,1.41,1.28,1.75.77,4.9.93,7.56-.27,2.63-1.18,4.04-3.46,4.68-4.79l-6.77-13-7.86,4Z" style="fill: #000; stroke-width: 0px;"></path>
        </g>
        <g>
          <g>
            <path d="M297.29,123.94c.19,1.99.75,3.98,1.9,5.61,1.15,1.63,2.96,2.86,4.95,3.04,1.73.15,3.47-.5,4.82-1.57,1.36-1.08,2.35-2.56,3.06-4.14,1.81.12,3.62-1.13,4.15-2.86.31-1,.18-2.18-.52-2.95-.7-.77-2.03-.98-2.82-.29-.45.39-.68,1-1.14,1.37-.52.42-1.26.47-1.89.26-.63-.21-1.17-.64-1.63-1.11-1.46-1.5-2.35-3.54-2.45-5.63,0,.2-.9.76-1.05.86-.4.27-.82.51-1.26.72-.87.4-1.8.65-2.75.75-.48.05-.97.06-1.45.03-.38-.02-.93-.23-1.3-.12-.78.21-.61,1.69-.64,2.29-.07,1.25-.08,2.5.04,3.75Z" style="fill: #fff; stroke-width: 0px;"></path>
            <path d="M304.63,132.89c-.18,0-.35,0-.52-.02-1.95-.17-3.88-1.35-5.15-3.16-1.08-1.52-1.73-3.45-1.95-5.75-.1-1.09-.12-2.29-.04-3.79,0-.1,0-.23,0-.37,0-.78,0-1.95.84-2.18.31-.08.66-.01.98.05.15.03.3.06.41.07.46.03.93.02,1.4-.03.93-.1,1.82-.34,2.66-.73.43-.2.84-.43,1.22-.69.02-.02.06-.04.11-.07.58-.38.77-.54.83-.62.03-.12.13-.22.26-.22.15-.01.29.11.29.27h0c.1,2.02.96,4,2.37,5.44.53.55,1.02.88,1.51,1.04.6.19,1.22.11,1.63-.21.21-.17.37-.4.54-.65.17-.25.35-.5.59-.72.87-.76,2.37-.61,3.21.32.72.8.95,2.03.58,3.22-.55,1.79-2.31,3.07-4.17,3.07-.02,0-.04,0-.06,0-.79,1.72-1.82,3.09-3.06,4.07-1.34,1.07-2.96,1.66-4.5,1.66ZM297.57,123.91c.21,2.2.83,4.04,1.85,5.48,1.18,1.67,2.96,2.76,4.74,2.92,1.55.14,3.24-.41,4.62-1.51,1.21-.96,2.21-2.32,2.97-4.04.05-.11.16-.17.28-.17,1.67.11,3.37-1.06,3.86-2.66.3-.99.12-2.04-.46-2.68-.63-.7-1.79-.82-2.42-.27-.19.17-.34.38-.5.61-.19.27-.38.55-.65.76-.55.44-1.38.56-2.16.31-.59-.19-1.14-.57-1.74-1.18-1.36-1.39-2.24-3.25-2.47-5.18-.15.11-.33.24-.57.39l-.1.07c-.41.28-.85.53-1.3.74-.9.41-1.85.67-2.84.78-.5.05-1.01.06-1.5.03-.15,0-.31-.04-.49-.08-.26-.05-.55-.11-.73-.06-.44.12-.43,1.07-.43,1.64,0,.15,0,.29,0,.4-.08,1.46-.07,2.64.03,3.7Z" style="fill: #000; stroke-width: 0px;"></path>
          </g>
          <g>
            <path d="M313.92,123.03c-.93.21-1.69,1.03-1.84,1.97l1.84-1.97Z" style="fill: #fff; stroke-width: 0px;"></path>
            <path d="M312.07,125.27s-.03,0-.05,0c-.15-.03-.26-.17-.23-.32.17-1.05,1.02-1.96,2.06-2.2.15-.03.3.06.34.21s-.06.3-.21.34c-.82.19-1.49.9-1.63,1.74-.02.14-.14.24-.28.24Z" style="fill: #000; stroke-width: 0px;"></path>
          </g>
        </g>
      </g>
    </g>
  </g>
</svg>
